<svg width="192" height="192" version="1.1" viewBox="0 0 256 256" xmlns="http://www.w3.org/2000/svg">
<path d="m160 15.393c-5.1925 0-10.385 1.9608-14.25 5.8854l-57.279 57.281c-12.732-3.0324-37.359-5.2305-61.411 14.206a12.001 12.001 0 0 0-0.007813 0.005208c-9.1013 7.365-9.8155 21.495-1.5078 29.742l0.007812 0.00781 45.479 45.479-31.516 31.516a12 12 0 0 0 0 16.969 12 12 0 0 0 16.969 0l31.516-31.516 45.242 45.242c8.4161 8.5634 23.026 7.598 30.245-1.9948 4.7791-6.3186 10.935-15.884 14.445-27.935 2.8431-9.7617 3.6809-21.488 0.0625-33.307l56.727-56.724c7.8492-7.7299 7.8492-20.77 0-28.5l-60.471-60.471c-3.865-3.9246-9.0575-5.8854-14.25-5.8854zm0 25.578 55.029 55.029-59.513 59.516a12.001 12.001 0 0 0-2.2396 13.87c4.2006 8.3647 3.9255 16.25 1.6146 24.185-1.8075 6.2061-4.9928 11.73-8.0443 16.305l-50.362-50.359-50.615-50.615c23.23-16.266 40.747-6.1771 40.747-6.1771a12.001 12.001 0 0 0 13.867-2.2396l59.516-59.513z"/>
</svg>
