<svg xmlns="http://www.w3.org/2000/svg" xmlns:xlink="http://www.w3.org/1999/xlink"><defs><path d="M256 0v128h128L256 0zm-32 128V0H48C21.49 0 0 21.49 0 48v416c0 26.5 21.49 48 48 48h288c26.51 0 48-21.49 48-48V160H256.9c-18.6 0-32.9-14.3-32.9-32zm48 288H112c-8.8 0-16-7.2-16-16s7.2-16 16-16h160c8.836 0 16 7.162 16 16 0 8.8-7.2 16-16 16zm0-64H112c-8.8 0-16-7.2-16-16s7.2-16 16-16h160c8.836 0 16 7.162 16 16 0 8.8-7.2 16-16 16zm16-80c0 8.8-7.2 16-16 16H112c-8.8 0-16-7.2-16-16s7.2-16 16-16h160c8.8 0 16 7.2 16 16z" id="reuse-0"/><path d="M0 64C0 28.65 28.65 0 64 0h160v128c0 17.7 14.3 32 32 32h128v288c0 35.3-28.7 64-64 64H64c-35.35 0-64-28.7-64-64V64zm256 64V0l128 128H256z" id="reuse-1"/><path d="M224 128V0H48C21.49 0 0 21.49 0 48v416c0 26.5 21.49 48 48 48h288c26.51 0 48-21.49 48-48V160H256.9c-18.6 0-32.9-14.3-32.9-32zm-69.9 225.8c7.812 7.812 7.812 20.5 0 28.31-3.9 3.99-9 5.89-14.1 5.89s-10.23-1.938-14.14-5.844l-48-48c-7.812-7.812-7.812-20.5 0-28.31l48-48c7.812-7.812 20.47-7.812 28.28 0s7.812 20.5 0 28.31L120.3 320l33.8 33.8zm152-48c7.812 7.812 7.812 20.5 0 28.31l-48 48c-3.9 3.99-9 5.89-14.1 5.89s-10.23-1.938-14.14-5.844c-7.812-7.812-7.812-20.5 0-28.31L263.7 320l-33.86-33.84c-7.812-7.812-7.812-20.5 0-28.31s20.47-7.812 28.28 0l47.98 47.95zM256 0v128h128L256 0z" id="reuse-2"/><path d="M0 64C0 28.65 28.65 0 64 0h160v128c0 17.7 14.3 32 32 32h128v47l-92.8 37.2c-21.3 8.5-35.2 29.1-35.2 52 0 56.5 18.9 148 94.2 208.2-9 4.9-19.3 7.6-30.2 7.6H64c-35.35 0-64-28.7-64-64V64zm256 64V0l128 128H256zm167.1 97.7c5.7-2.3 12.1-2.3 17.8 0l120 48c9.1 3.7 15.1 12.5 15.1 22.3 0 63.3-25.9 168.8-134.8 214.2-5.9 2.4-12.5 2.4-18.4 0C313.9 464.8 288 359.3 288 296c0-9.8 5.1-18.6 15.1-22.3l120-48zm8.9 48.1v187.9c68.2-33 91.5-99 95.4-150.6L432 273.8z" id="reuse-3"/></defs><symbol id="home" viewBox="0 0 24 24"><path d="M10 19v-5h4v5c0 .55.45 1 1 1h3c.55 0 1-.45 1-1v-7h1.7c.46 0 .68-.57.33-.87L12.67 3.6c-.38-.34-.96-.34-1.34 0l-8.36 7.53c-.34.3-.13.87.33.87H5v7c0 .55.45 1 1 1h3c.55 0 1-.45 1-1z"/></symbol><symbol id="sun" viewBox="0 0 24 24"><path d="M12 9c1.65 0 3 1.35 3 3s-1.35 3-3 3-3-1.35-3-3 1.35-3 3-3m0-2c-2.76 0-5 2.24-5 5s2.24 5 5 5 5-2.24 5-5-2.24-5-5-5zM2 13h2c.55 0 1-.45 1-1s-.45-1-1-1H2c-.55 0-1 .45-1 1s.45 1 1 1zm18 0h2c.55 0 1-.45 1-1s-.45-1-1-1h-2c-.55 0-1 .45-1 1s.45 1 1 1zM11 2v2c0 .55.45 1 1 1s1-.45 1-1V2c0-.55-.45-1-1-1s-1 .45-1 1zm0 18v2c0 .55.45 1 1 1s1-.45 1-1v-2c0-.55-.45-1-1-1s-1 .45-1 1zM5.99 4.58a.996.996 0 0 0-1.41 0 .996.996 0 0 0 0 1.41l1.06 1.06c.39.39 1.03.39 1.41 0s.39-1.03 0-1.41L5.99 4.58zm12.37 12.37a.996.996 0 0 0-1.41 0 .996.996 0 0 0 0 1.41l1.06 1.06c.39.39 1.03.39 1.41 0a.996.996 0 0 0 0-1.41l-1.06-1.06zm1.06-10.96a.996.996 0 0 0 0-1.41.996.996 0 0 0-1.41 0l-1.06 1.06c-.39.39-.39 1.03 0 1.41s1.03.39 1.41 0l1.06-1.06zM7.05 18.36a.996.996 0 0 0 0-1.41.996.996 0 0 0-1.41 0l-1.06 1.06c-.39.39-.39 1.03 0 1.41s1.03.39 1.41 0l1.06-1.06z"/></symbol><symbol id="moon" viewBox="0 0 24 24"><path d="M9.37 5.51A7.35 7.35 0 0 0 9.1 7.5c0 4.08 3.32 7.4 7.4 7.4.68 0 1.35-.09 1.99-.27A7.014 7.014 0 0 1 12 19c-3.86 0-7-3.14-7-7 0-2.93 1.81-5.45 4.37-6.49zM12 3a9 9 0 1 0 9 9c0-.46-.04-.92-.1-1.36a5.389 5.389 0 0 1-4.4 2.26 5.403 5.403 0 0 1-3.14-9.8c-.44-.06-.9-.1-1.36-.1z"/></symbol><symbol id="translate" viewBox="0 0 24 24"><path d="m12.87 15.07-2.54-2.51.03-.03A17.52 17.52 0 0 0 14.07 6H17V4h-7V2H8v2H1v1.99h11.17C11.5 7.92 10.44 9.75 9 11.35 8.07 10.32 7.3 9.19 6.69 8h-2c.73 1.63 1.73 3.17 2.98 4.56l-5.09 5.02L4 19l5-5 3.11 3.11.76-2.04zM18.5 10h-2L12 22h2l1.12-3h4.75L21 22h2l-4.5-12zm-2.62 7 1.62-4.33L19.12 17h-3.24z"/></symbol><symbol id="mobile-phone" viewBox="0 0 24 24"><path d="M15.5 1h-8A2.5 2.5 0 0 0 5 3.5v17A2.5 2.5 0 0 0 7.5 23h8a2.5 2.5 0 0 0 2.5-2.5v-17A2.5 2.5 0 0 0 15.5 1zm-4 21c-.83 0-1.5-.67-1.5-1.5s.67-1.5 1.5-1.5 1.5.67 1.5 1.5-.67 1.5-1.5 1.5zm4.5-4H7V4h9v14z"/></symbol><symbol id="menu" viewBox="0 0 24 24"><path d="M3 18h18v-2H3v2zm0-5h18v-2H3v2zm0-7v2h18V6H3z"/></symbol><symbol id="hash" viewBox="0 0 448 512"><path d="M416 127.1h-58.23l9.789-58.74c2.906-17.44-8.875-33.92-26.3-36.83-17.53-2.875-33.92 8.891-36.83 26.3L292.9 127.1h-95.1l9.789-58.74c2.906-17.44-8.875-33.92-26.3-36.83-17.53-2.875-33.92 8.891-36.83 26.3L132.9 127.1H64c-17.67 0-32 14.33-32 32 0 18.6 14.33 32 32 32h58.23l-21.33 128H32c-17.67 0-32 14.33-32 32s14.33 31.1 32 31.1h58.23l-9.789 58.74c-2.906 17.44 8.875 33.92 26.3 36.83C108.5 479.9 110.3 480 112 480c15.36 0 28.92-11.09 31.53-26.73L155.07 384h95.12l-9.789 58.74c-2.906 17.44 8.875 33.92 26.3 36.83 1.799.33 3.599.43 5.299.43 15.36 0 28.92-11.09 31.53-26.73L315.07 384H384c17.67 0 32-14.33 32-31.1 0-17.67-14.33-32-32-32h-58.23l21.33-128H416c17.67 0 32-14.32 32-31.1 0-19.5-14.3-34.7-32-34.7zm-155.1 192h-95.1l21.3-128h95.12l-21.32 128z"/></symbol><symbol id="users" viewBox="0 0 24 24"><path d="M12 12.75c1.63 0 3.07.39 4.24.9 1.08.48 1.76 1.56 1.76 2.73V18H6v-1.61c0-1.18.68-2.26 1.76-2.73 1.17-.52 2.61-.91 4.24-.91zM4 13c1.1 0 2-.9 2-2s-.9-2-2-2-2 .9-2 2 .9 2 2 2zm1.13 1.1c-.37-.06-.74-.1-1.13-.1-.99 0-1.93.21-2.78.58A2.01 2.01 0 0 0 0 16.43V18h4.5v-1.61c0-.83.23-1.61.63-2.29zM20 13c1.1 0 2-.9 2-2s-.9-2-2-2-2 .9-2 2 .9 2 2 2zm4 3.43c0-.81-.48-1.53-1.22-1.85A6.95 6.95 0 0 0 20 14c-.39 0-.76.04-1.13.1.4.68.63 1.46.63 2.29V18H24v-1.57zM12 6c1.66 0 3 1.34 3 3s-1.34 3-3 3-3-1.34-3-3 1.34-3 3-3z"/></symbol><symbol id="smiley-half" viewBox="0 0 24 24"><circle cx="15.5" cy="9.5" r="1.5"/><circle cx="8.5" cy="9.5" r="1.5"/><path d="M11.99 2C6.47 2 2 6.48 2 12s4.47 10 9.99 10C17.52 22 22 17.52 22 12S17.52 2 11.99 2zM12 20c-4.42 0-8-3.58-8-8s3.58-8 8-8 8 3.58 8 8-3.58 8-8 8zm4.41-6.11a.745.745 0 0 0-1.03.24C14.64 15.3 13.38 16 12 16s-2.64-.7-3.38-1.88a.747.747 0 1 0-1.27.79C8.37 16.54 10.1 17.5 12 17.5s3.63-.97 4.65-2.58c.22-.35.11-.81-.24-1.03z"/></symbol><symbol id="balloon" viewBox="0 0 256 256"><path d="M128 16a88.1 88.1 0 0 0-88 88c0 23.4 9.4 49.4 25.1 69.5 11.9 15.2 26.2 25.7 41.3 30.9L96.6 229a8 8 0 0 0 .8 7.5 7.9 7.9 0 0 0 6.6 3.5h48a7.9 7.9 0 0 0 6.6-3.5 8 8 0 0 0 .8-7.5l-9.8-24.6c15.1-5.2 29.4-15.7 41.3-30.9 15.7-20.1 25.1-46.1 25.1-69.5a88.1 88.1 0 0 0-88-88Zm48.7 87.9h-1.4a8.1 8.1 0 0 1-7.9-6.7 39.7 39.7 0 0 0-32.7-32.7 8.1 8.1 0 0 1-6.6-9.3 7.9 7.9 0 0 1 9.2-6.5 55.9 55.9 0 0 1 45.9 45.9 7.9 7.9 0 0 1-6.5 9.3Z"/></symbol><symbol id="chevron-down" viewBox="0 0 24 24"><path d="M8.12 9.29 12 13.17l3.88-3.88a.996.996 0 1 1 1.41 1.41l-4.59 4.59a.996.996 0 0 1-1.41 0L6.7 10.7a.996.996 0 0 1 0-1.41c.39-.38 1.03-.39 1.42 0z"/></symbol><symbol id="send" viewBox="0 0 256 256"><path d="m227.7 48.3-52.4 185.9a15.9 15.9 0 0 1-14.1 11.6h-1.4a16 16 0 0 1-14.4-9.1l-35.7-75.4a4.1 4.1 0 0 1 .8-4.6l51.3-51.3a8 8 0 1 0-11.3-11.3l-51.3 51.4a4.1 4.1 0 0 1-4.6.8l-75-35.5a16.6 16.6 0 0 1-9.5-15.6 15.9 15.9 0 0 1 11.7-14.5l186.3-52.5a16 16 0 0 1 17.7 6.5 16.7 16.7 0 0 1 1.9 13.6Z"/></symbol><symbol id="plus" viewBox="0 0 256 256"><path d="M128 28a12 12 0 0 0-12 12v76H40a12 12 0 0 0-12 12 12 12 0 0 0 12 12h76v76a12 12 0 0 0 12 12 12 12 0 0 0 12-12v-76h76a12 12 0 0 0 12-12 12 12 0 0 0-12-12h-76V40a12 12 0 0 0-12-12z"/></symbol><symbol id="save" viewBox="0 0 24 24"><path d="M19 9h-4V3H9v6H5l7 7 7-7zM5 18v2h14v-2H5z"/></symbol><symbol id="pencil" viewBox="0 0 24 24"><path d="M3 17.25V21h3.75L17.81 9.94l-3.75-3.75L3 17.25zM20.71 7.04a.996.996 0 0 0 0-1.41l-2.34-2.34a.996.996 0 0 0-1.41 0l-1.83 1.83 3.75 3.75 1.83-1.83z"/></symbol><symbol id="push-pin" viewBox="0 0 256 256"><path d="M160 15.393c-5.192 0-10.385 1.96-14.25 5.885L88.471 78.56c-12.732-3.032-37.359-5.23-61.411 14.206a12.001 12.001 0 0 0-.008.006c-9.101 7.365-9.815 21.495-1.508 29.742l.008.007L71.032 168l-31.517 31.515a12 12 0 0 0 0 16.97 12 12 0 0 0 16.97 0L88 184.967l45.242 45.242c8.416 8.564 23.026 7.598 30.245-1.994 4.78-6.319 10.935-15.884 14.445-27.935 2.843-9.762 3.681-21.488.063-33.307l56.727-56.724c7.849-7.73 7.849-20.77 0-28.5l-60.472-60.47c-3.865-3.925-9.058-5.886-14.25-5.886zm0 25.578L215.029 96l-59.513 59.516a12.001 12.001 0 0 0-2.24 13.87c4.201 8.365 3.926 16.25 1.615 24.185-1.808 6.206-4.993 11.73-8.044 16.305l-50.362-50.359-50.615-50.615c23.23-16.266 40.747-6.177 40.747-6.177a12.001 12.001 0 0 0 13.867-2.24L160 40.972z"/></symbol><symbol id="arrow-thin-right" viewBox="0 0 256 256"><path d="M176 88.001a8 8 0 0 0-5.656 2.344 8 8 0 0 0 0 11.312L188.688 120H47.708a7.706 8 0 0 0-7.706 8 7.706 8 0 0 0 7.706 8h140.98l-18.344 18.344a8 8 0 0 0 0 11.312 8 8 0 0 0 11.312 0l32-32a8 8 0 0 0 0-11.312l-32-32A8 8 0 0 0 176 88z"/></symbol><symbol id="paste" viewBox="0 0 24 24"><path d="M5 5h2v1c0 1.1.9 2 2 2h6c1.1 0 2-.9 2-2V5h2v6h2V5c0-1.1-.9-2-2-2h-4.18C14.4 1.84 13.3 1 12 1s-2.4.84-2.82 2H5c-1.1 0-2 .9-2 2v14c0 1.1.9 2 2 2h5v-2H5V5zm7-2c.55 0 1 .45 1 1s-.45 1-1 1-1-.45-1-1 .45-1 1-1z"/><path d="m21.29 16.29-2.58-2.58a.996.996 0 1 0-1.41 1.41l.87.88H13c-.55 0-1 .45-1 1s.45 1 1 1h5.17l-.87.88a.996.996 0 1 0 1.41 1.41l2.58-2.58c.39-.4.39-1.03 0-1.42z"/></symbol><symbol id="trash" viewBox="0 0 24 24"><path d="M6 19c0 1.1.9 2 2 2h8c1.1 0 2-.9 2-2V7H6v12zM19 4h-3.5l-1-1h-5l-1 1H5v2h14V4z"/></symbol><symbol id="trash-open" viewBox="0 0 24 24"><path d="M17-2.34 13.969-.59l-1.366-.365-4.33 2.5-.366 1.366-3.031 1.75 1 1.732L18-.607zM6 19c0 1.1.9 2 2 2h8c1.1 0 2-.9 2-2V7H6z"/></symbol><symbol id="clipboard" viewBox="0 0 24 24"><path d="M19 2h-4.18C14.4.84 13.3 0 12 0S9.6.84 9.18 2H5c-1.1 0-2 .9-2 2v16c0 1.1.9 2 2 2h14c1.1 0 2-.9 2-2V4c0-1.1-.9-2-2-2zm-7 0c.55 0 1 .45 1 1s-.45 1-1 1-1-.45-1-1 .45-1 1-1zm6 18H6c-.55 0-1-.45-1-1V5c0-.55.45-1 1-1h1v1c0 1.1.9 2 2 2h6c1.1 0 2-.9 2-2V4h1c.55 0 1 .45 1 1v14c0 .55-.45 1-1 1z"/></symbol><symbol id="copy" viewBox="0 0 24 24"><path d="M15 20H5V7c0-.55-.45-1-1-1s-1 .45-1 1v13c0 1.1.9 2 2 2h10c.55 0 1-.45 1-1s-.45-1-1-1zm5-4V4c0-1.1-.9-2-2-2H9c-1.1 0-2 .9-2 2v12c0 1.1.9 2 2 2h9c1.1 0 2-.9 2-2zm-2 0H9V4h9v12z"/></symbol><symbol id="chat-message" viewBox="0 0 24 24"><path d="M20 2H4c-1.1 0-2 .9-2 2v18l4-4h14c1.1 0 2-.9 2-2V4c0-1.1-.9-2-2-2zm0 14H6l-2 2V4h16v12z"/></symbol><symbol id="triangle-alert" viewBox="0 0 24 24"><path d="M12 5.99 19.53 19H4.47L12 5.99M12 2 1 21h22L12 2zm1 14h-2v2h2v-2zm0-6h-2v4h2v-4z"/></symbol><symbol id="lock" viewBox="0 0 24 24"><path d="M18 8h-1V6c0-2.76-2.24-5-5-5S7 3.24 7 6v2H6c-1.1 0-2 .9-2 2v10c0 1.1.9 2 2 2h12c1.1 0 2-.9 2-2V10c0-1.1-.9-2-2-2zm-6 9c-1.1 0-2-.9-2-2s.9-2 2-2 2 .9 2 2-.9 2-2 2zm3.1-9H8.9V6c0-1.71 1.39-3.1 3.1-3.1 1.71 0 3.1 1.39 3.1 3.1v2z"/></symbol><symbol id="crown" viewBox="0 0 256 256"><path d="M238.7 73.5a15.9 15.9 0 0 0-16.7-2.3l-50.6 22.5-29.4-53a16.1 16.1 0 0 0-28 0l-29.4 53L34 71.2a16 16 0 0 0-22.1 18.3l25.4 108.3a15.9 15.9 0 0 0 7.4 10.1 16.2 16.2 0 0 0 8.3 2.3 15.2 15.2 0 0 0 4.2-.6 265.5 265.5 0 0 1 141.5 0 16.5 16.5 0 0 0 12.5-1.7 15.6 15.6 0 0 0 7.4-10.1l25.5-108.3a16 16 0 0 0-5.4-16Zm-70.7 89a8.1 8.1 0 0 1-8 7.2h-.8a309.8 309.8 0 0 0-62.4 0 8 8 0 0 1-8.8-7.1 8.1 8.1 0 0 1 7.2-8.8 312.7 312.7 0 0 1 65.6 0 8.1 8.1 0 0 1 7.2 8.7Z"/></symbol><symbol id="cogwheel" viewBox="0 0 24 24"><path d="M19.5 12c0-.23-.01-.45-.03-.68l1.86-1.41c.4-.3.51-.86.26-1.3l-1.87-3.23a.987.987 0 0 0-1.25-.42l-2.15.91c-.37-.26-.76-.49-1.17-.68l-.29-2.31c-.06-.5-.49-.88-.99-.88h-3.73c-.51 0-.94.38-1 .88l-.29 2.31c-.41.19-.8.42-1.17.68l-2.15-.91c-.46-.2-1-.02-1.25.42L2.41 8.62c-.25.44-.14.99.26 1.3l1.86 1.41a7.343 7.343 0 0 0 0 1.35l-1.86 1.41c-.4.3-.51.86-.26 1.3l1.87 3.23c.25.44.79.62 1.25.42l2.15-.91c.37.26.76.49 1.17.68l.29 2.31c.06.5.49.88.99.88h3.73c.5 0 .93-.38.99-.88l.29-2.31c.41-.19.8-.42 1.17-.68l2.15.91c.46.2 1 .02 1.25-.42l1.87-3.23c.25-.44.14-.99-.26-1.3l-1.86-1.41c.03-.23.04-.45.04-.68zm-7.46 3.5c-1.93 0-3.5-1.57-3.5-3.5s1.57-3.5 3.5-3.5 3.5 1.57 3.5 3.5-1.57 3.5-3.5 3.5z"/></symbol><symbol id="speaker" viewBox="0 0 24 24"><path d="M3 10v4c0 .55.45 1 1 1h3l3.29 3.29c.63.63 1.71.18 1.71-.71V6.41c0-.89-1.08-1.34-1.71-.71L7 9H4c-.55 0-1 .45-1 1zm13.5 2A4.5 4.5 0 0 0 14 7.97v8.05c1.48-.73 2.5-2.25 2.5-4.02zM14 4.45v.2c0 .38.25.71.6.85C17.18 6.53 19 9.06 19 12s-1.82 5.47-4.4 6.5c-.36.14-.6.47-.6.85v.2c0 .63.63 1.07 1.21.85C18.6 19.11 21 15.84 21 12s-2.4-7.11-5.79-8.4c-.58-.23-1.21.22-1.21.85z"/></symbol><symbol id="speaker-deaf" viewBox="0 0 24 24"><path d="M3.63 3.63a.996.996 0 0 0 0 1.41L7.29 8.7 7 9H4c-.55 0-1 .45-1 1v4c0 .55.45 1 1 1h3l3.29 3.29c.63.63 1.71.18 1.71-.71v-4.17l4.18 4.18c-.49.37-1.02.68-1.6.91-.36.15-.58.53-.58.92 0 .72.73 1.18 1.39.91.8-.33 1.55-.77 2.22-1.31l1.34 1.34a.996.996 0 1 0 1.41-1.41L5.05 3.63c-.39-.39-1.02-.39-1.42 0zM19 12c0 .82-.15 1.61-.41 2.34l1.53 1.53c.56-1.17.88-2.48.88-3.87 0-3.83-2.4-7.11-5.78-8.4-.59-.23-1.22.23-1.22.86v.19c0 .38.25.71.61.85C17.18 6.54 19 9.06 19 12zm-8.71-6.29-.17.17L12 7.76V6.41c0-.89-1.08-1.33-1.71-.7zM16.5 12A4.5 4.5 0 0 0 14 7.97v1.79l2.48 2.48c.01-.08.02-.16.02-.24z"/></symbol><symbol id="microphone" viewBox="0 0 24 24"><path d="M12 14c1.66 0 3-1.34 3-3V5c0-1.66-1.34-3-3-3S9 3.34 9 5v6c0 1.66 1.34 3 3 3zm5.91-3c-.49 0-.9.36-.98.85C16.52 14.2 14.47 16 12 16s-4.52-1.8-4.93-4.15a.998.998 0 0 0-.98-.85c-.61 0-1.09.54-1 1.14.49 3 2.89 5.35 5.91 5.78V20c0 .55.45 1 1 1s1-.45 1-1v-2.08a6.993 6.993 0 0 0 5.91-5.78c.1-.6-.39-1.14-1-1.14z"/></symbol><symbol id="microphone-mute" viewBox="0 0 24 24"><path d="M15 10.6V5c0-1.66-1.34-3-3-3-1.54 0-2.79 1.16-2.96 2.65L15 10.6zm3.08.4c-.41 0-.77.3-.83.71-.05.32-.12.64-.22.93l1.27 1.27c.3-.6.52-1.25.63-1.94a.857.857 0 0 0-.85-.97zM3.71 3.56a.996.996 0 0 0 0 1.41L9 10.27v.43c0 1.19.6 2.32 1.63 2.91.75.43 1.41.44 2.02.31l1.66 1.66c-.71.33-1.5.52-2.31.52-2.54 0-4.88-1.77-5.25-4.39a.839.839 0 0 0-.83-.71c-.52 0-.92.46-.85.97.46 2.96 2.96 5.3 5.93 5.75V20c0 .55.45 1 1 1s1-.45 1-1v-2.28a7.13 7.13 0 0 0 2.55-.9l3.49 3.49a.996.996 0 1 0 1.41-1.41L5.12 3.56a.996.996 0 0 0-1.41 0z"/></symbol><symbol id="close" viewBox="0 0 24 24"><path d="M18.3 5.71a.996.996 0 0 0-1.41 0L12 10.59 7.11 5.7A.996.996 0 1 0 5.7 7.11L10.59 12 5.7 16.89a.996.996 0 1 0 1.41 1.41L12 13.41l4.89 4.89a.996.996 0 1 0 1.41-1.41L13.41 12l4.89-4.89c.38-.38.38-1.02 0-1.4z"/></symbol><symbol id="fullscreen-off" viewBox="0 0 24 24"><path d="M5 16h3v3h2v-5H5v2zm3-8H5v2h5V5H8v3zm6 11h2v-3h3v-2h-5v5zm2-11V5h-2v5h5V8h-3z"/></symbol><symbol id="fullscreen-on" viewBox="0 0 24 24"><path d="M7 14H5v5h5v-2H7v-3zm-2-4h2V7h3V5H5v5zm12 7h-3v2h5v-5h-2v3zM14 5v2h3v3h2V5h-5z"/></symbol><symbol id="logout" viewBox="0 0 24 24"><path d="m17 7-1.41 1.41L18.17 11H8v2h10.17l-2.58 2.58L17 17l5-5zM4 5h8V3H4c-1.1 0-2 .9-2 2v14c0 1.1.9 2 2 2h8v-2H4V5z"/></symbol><symbol id="circle-empty-info" viewBox="0 0 24 24"><path d="M11 7h2v2h-2zm0 4h2v6h-2zm1-9C6.48 2 2 6.48 2 12s4.48 10 10 10 10-4.48 10-10S17.52 2 12 2zm0 18c-4.41 0-8-3.59-8-8s3.59-8 8-8 8 3.59 8 8-3.59 8-8 8z"/></symbol><symbol id="plain-text-file" viewBox="0 0 384 512"><use xlink:href="#reuse-0"/></symbol><symbol id="rich-text-file" viewBox="0 0 384 512"><use xlink:href="#reuse-0"/></symbol><symbol id="audio-file" viewBox="0 0 384 512"><path d="M224 128V0H48C21.49 0 0 21.49 0 48v416c0 26.5 21.49 48 48 48h288c26.51 0 48-21.49 48-48V160H256.9c-18.6 0-32.9-14.3-32.9-32zm-48 276c0 10.75-12.88 15.98-20.5 8.484L120 376H76c-6.62 0-12-5.4-12-12v-56c0-6.6 5.38-12 12-12h44l35.5-36.5c7.6-7.6 20.5-2.2 20.5 8.5v136zm48-16.2c-4.391 0-8.75-1.835-11.91-5.367-5.906-6.594-5.359-16.69 1.219-22.59C220.2 353.7 224 345.2 224 336s-3.797-17.69-10.69-23.88c-6.578-5.906-7.125-16-1.219-22.59 5.922-6.594 16.05-7.094 22.59-1.219C248.2 300.5 256 317.8 256 336s-7.766 35.53-21.31 47.69c-3.09 2.71-6.89 4.11-10.69 4.11zm96-51.8c0 41.81-20.5 81.11-54.84 105.1a15.98 15.98 0 0 1-9.145 2.875c-5.047 0-10.03-2.375-13.14-6.844-5.047-7.25-3.281-17.22 3.969-22.28C272.6 396.9 288 367.4 288 336s-15.38-60.84-41.14-78.8c-7.25-5.062-9.027-15.03-3.98-22.28 5.047-7.281 14.99-9.062 22.27-3.969C299.5 254.9 320 294.2 320 336zM256 0v128h128L256 0z"/></symbol><symbol id="video-file" viewBox="0 0 384 512"><path d="M256 0v128h128L256 0zm-32 128V0H48C21.49 0 0 21.49 0 48v416c0 26.5 21.49 48 48 48h288c26.51 0 48-21.49 48-48V160H256.9c-18.6 0-32.9-14.3-32.9-32zm0 256c0 17.67-14.33 32-32 32H96c-17.67 0-32-14.33-32-32v-96c0-17.67 14.33-32 32-32h96c17.67 0 32 14.33 32 32v96zm96-99.1v102.3c0 12.57-13.82 20.23-24.48 13.57L256 376v-80l39.52-24.7c10.68-6.7 24.48 1 24.48 13.6z"/></symbol><symbol id="image-file" viewBox="0 0 384 512"><path d="M224 128V0H48C21.49 0 0 21.49 0 48v416c0 26.5 21.49 48 48 48h288c26.51 0 48-21.49 48-48V160H256.9c-18.6 0-32.9-14.3-32.9-32zM96 224c17.67 0 32 14.33 32 32s-14.3 32-32 32-32-14.3-32-32 14.33-32 32-32zm222.1 215.5c-2.8 5.3-8.2 8.5-14.1 8.5H80c-5.9 0-11.32-3.248-14.11-8.451a15.991 15.991 0 0 1 .795-16.42l53.33-80C122.1 338.7 127.1 336 133.3 336s10.35 2.674 13.31 7.125L160 363.2l45.35-68.03c2.95-4.47 7.95-7.17 13.35-7.17s10.35 2.674 13.31 7.125l85.33 128c3.26 4.875 3.56 11.175.76 16.375zM256 0v128h128L256 0z"/></symbol><symbol id="spreadsheet-file" viewBox="0 0 384 512"><path d="M224 128V0H48C21.49 0 0 21.49 0 48v416c0 26.5 21.49 48 48 48h288c26.51 0 48-21.49 48-48V160H256.9c-18.6 0-32.9-14.3-32.9-32zm48.1 136.4L224 344l48.99 79.61C279.6 434.3 271.9 448 259.4 448h-26.43a16.013 16.013 0 0 1-13.63-7.617L192 396l-27.31 44.38c-2.89 4.72-8.09 7.62-13.59 7.62h-26.5c-12.52 0-20.19-13.73-13.63-24.39L160 344l-49-79.6c-6.6-10.7 1.1-24.4 13.6-24.4h26.43c5.557 0 10.71 2.883 13.63 7.613L192 292l27.31-44.39c2.89-4.71 8.09-7.61 13.59-7.61h26.43c12.57 0 20.27 13.7 12.77 24.4zM256 0v128h128L256 0z"/></symbol><symbol id="database-file" viewBox="0 0 384 512"><use xlink:href="#reuse-1"/></symbol><symbol id="program-file" viewBox="0 0 384 512"><use xlink:href="#reuse-1"/></symbol><symbol id="terminal-file" viewBox="0 0 384 512"><use xlink:href="#reuse-2"/></symbol><symbol id="script-file" viewBox="0 0 384 512"><use xlink:href="#reuse-2"/></symbol><symbol id="presentation-file" viewBox="0 0 384 512"><path d="M256 0v128h128L256 0zm-32 128V0H48C21.49 0 0 21.49 0 48v416c0 26.5 21.49 48 48 48h288c26.51 0 48-21.49 48-48V160H256.9c-18.6 0-32.9-14.3-32.9-32zm55.6 180.1c4.6 45.4-31.1 83.9-75.6 83.9h-44v40c0 8.8-7.2 16-16 16h-16c-8.836 0-16-7.164-16-16V256c0-8.836 7.164-16 16-16h71.51c39.79 0 76.09 28.5 80.09 68.1zM160 344h44c15.44 0 28-12.56 28-28s-12.6-28-28-28h-44v56z"/></symbol><symbol id="unknown-file" viewBox="0 0 576 512"><path d="M0 64C0 28.65 28.65 0 64 0h160v128c0 17.7 14.3 32 32 32h128v38.6c-73.9 20.9-128 88.8-128 169.4 0 59.1 29.1 111.3 73.7 143.3-3.1.4-6.4.7-9.7.7H64c-35.35 0-64-28.7-64-64V64zm256 64V0l128 128H256zm32 240c0-79.5 64.5-144 144-144s144 64.5 144 144-64.5 144-144 144-144-64.5-144-144zm144 96c13.3 0 24-10.7 24-24s-10.7-24-24-24-24 10.7-24 24 10.7 24 24 24zm-64-136c0 8.8 7.2 16 16 16s16-7.2 16-16v-6.4c0-5.3 4.3-9.6 9.6-9.6h40.5c7.7 0 13.9 6.2 13.9 13.9 0 5.2-2.9 9.9-7.4 12.4l-32 16.8c-5.3 2.8-8.6 8.2-8.6 14.1V384c0 8.8 7.2 16 16 16s16-7.2 16-16v-5.1l23.5-12.3c15.1-8 24.5-24.5 24.5-40.7 0-25.3-20.6-45.9-45.9-45.9h-40.5c-23 0-41.6 18.6-41.6 41.6v6.4z"/></symbol><symbol id="code-file" viewBox="0 0 384 512"><use xlink:href="#reuse-2"/></symbol><symbol id="encrypted-file" viewBox="0 0 576 512"><use xlink:href="#reuse-3"/></symbol><symbol id="key-file" viewBox="0 0 576 512"><use xlink:href="#reuse-3"/></symbol><symbol id="zip-file" viewBox="0 0 384 512"><path d="M256 0v128h128L256 0zm-32 128V0H48C21.49 0 0 21.49 0 48v416c0 26.5 21.49 48 48 48h288c26.51 0 48-21.49 48-48V160H256.9c-18.6 0-32.9-14.3-32.9-32zM96 32h64v32H96V32zm0 64h64v32H96V96zm0 64h64v32H96v-32zm32.3 255.1c-40.56 0-70.76-36.45-62.83-75.45L96 224h64l30.94 116.9c7.76 38.8-22.44 74.2-62.64 74.2zM144 336h-32c-8.8 0-16 7.2-16 16s7.164 16 16 16h32c8.8 0 16-7.2 16-16s-7.2-16-16-16z"/></symbol></svg>